<mxfile host="app.diagrams.net" agent="Mozilla/5.0 (Windows NT 10.0; Win64; x64) AppleWebKit/537.36 (KHTML, like Gecko) Chrome/136.0.0.0 Safari/537.36" version="27.0.5">
  <diagram name="Page-1" id="YxYcGOVtU4HwVLi7yAHZ">
    <mxGraphModel dx="1019" dy="1700" grid="1" gridSize="10" guides="1" tooltips="1" connect="1" arrows="1" fold="1" page="1" pageScale="1" pageWidth="827" pageHeight="1169" math="0" shadow="0">
      <root>
        <mxCell id="0" />
        <mxCell id="1" parent="0" />
        <mxCell id="cfgM2LiuhfPeAGd90OJj-10" value="&lt;b&gt;Client web&lt;/b&gt;" style="shape=image;html=1;verticalAlign=middle;verticalLabelPosition=middle;labelBackgroundColor=#ffffff;imageAspect=0;aspect=fixed;image=https://cdn2.iconfinder.com/data/icons/HYDROPRO/Laptop.png;align=left;labelPosition=right;" vertex="1" parent="1">
          <mxGeometry x="410" y="-560" width="70" height="70" as="geometry" />
        </mxCell>
        <mxCell id="cfgM2LiuhfPeAGd90OJj-11" value="User" style="verticalLabelPosition=bottom;html=1;verticalAlign=top;align=center;strokeColor=none;fillColor=#00BEF2;shape=mxgraph.azure.user;" vertex="1" parent="1">
          <mxGeometry x="360" y="-550" width="30" height="30" as="geometry" />
        </mxCell>
        <mxCell id="cfgM2LiuhfPeAGd90OJj-26" value="" style="swimlane;startSize=0;fillColor=#fad9d5;strokeColor=#ae4132;gradientColor=none;rounded=1;" vertex="1" parent="1">
          <mxGeometry x="220" y="-470" width="440" height="250" as="geometry" />
        </mxCell>
        <mxCell id="cfgM2LiuhfPeAGd90OJj-8" value="" style="swimlane;startSize=0;fillColor=#b1ddf0;strokeColor=#10739e;" vertex="1" parent="cfgM2LiuhfPeAGd90OJj-26">
          <mxGeometry x="20" y="60" width="400" height="180" as="geometry">
            <mxRectangle x="140" y="190" width="50" height="40" as="alternateBounds" />
          </mxGeometry>
        </mxCell>
        <mxCell id="cfgM2LiuhfPeAGd90OJj-2" value="&lt;b&gt;API Gateway&lt;/b&gt;" style="rounded=1;whiteSpace=wrap;html=1;fillColor=#1ba1e2;fontColor=#ffffff;strokeColor=#006EAF;" vertex="1" parent="cfgM2LiuhfPeAGd90OJj-8">
          <mxGeometry x="155" y="15" width="100" height="50" as="geometry" />
        </mxCell>
        <mxCell id="cfgM2LiuhfPeAGd90OJj-4" value="&lt;b&gt;Service Cinema&lt;br&gt;&lt;/b&gt;&lt;i&gt;microservice&lt;/i&gt;" style="rounded=1;whiteSpace=wrap;html=1;fillColor=#fff2cc;strokeColor=#d6b656;" vertex="1" parent="cfgM2LiuhfPeAGd90OJj-8">
          <mxGeometry x="155" y="100" width="100" height="50" as="geometry" />
        </mxCell>
        <mxCell id="cfgM2LiuhfPeAGd90OJj-5" value="&lt;b&gt;Service Publique&lt;br&gt;&lt;/b&gt;microservice" style="rounded=1;whiteSpace=wrap;html=1;fillColor=#fff2cc;strokeColor=#d6b656;" vertex="1" parent="cfgM2LiuhfPeAGd90OJj-8">
          <mxGeometry x="285" y="100" width="100" height="50" as="geometry" />
        </mxCell>
        <mxCell id="cfgM2LiuhfPeAGd90OJj-3" value="&lt;b&gt;Service Connexion&lt;br&gt;&lt;/b&gt;microservice" style="rounded=1;whiteSpace=wrap;html=1;fillColor=#fff2cc;strokeColor=#d6b656;" vertex="1" parent="cfgM2LiuhfPeAGd90OJj-8">
          <mxGeometry x="15" y="100" width="100" height="50" as="geometry" />
        </mxCell>
        <mxCell id="cfgM2LiuhfPeAGd90OJj-18" value="" style="endArrow=classic;startArrow=classic;html=1;rounded=0;exitX=0.5;exitY=0;exitDx=0;exitDy=0;entryX=0.25;entryY=1;entryDx=0;entryDy=0;edgeStyle=orthogonalEdgeStyle;" edge="1" parent="cfgM2LiuhfPeAGd90OJj-8" source="cfgM2LiuhfPeAGd90OJj-3" target="cfgM2LiuhfPeAGd90OJj-2">
          <mxGeometry width="50" height="50" relative="1" as="geometry">
            <mxPoint x="162" y="197" as="sourcePoint" />
            <mxPoint x="45" y="160" as="targetPoint" />
          </mxGeometry>
        </mxCell>
        <mxCell id="cfgM2LiuhfPeAGd90OJj-19" value="" style="endArrow=classic;startArrow=classic;html=1;rounded=0;exitX=0.5;exitY=0;exitDx=0;exitDy=0;entryX=0.5;entryY=1;entryDx=0;entryDy=0;" edge="1" parent="cfgM2LiuhfPeAGd90OJj-8" source="cfgM2LiuhfPeAGd90OJj-4" target="cfgM2LiuhfPeAGd90OJj-2">
          <mxGeometry width="50" height="50" relative="1" as="geometry">
            <mxPoint x="215" y="195" as="sourcePoint" />
            <mxPoint x="215" y="160" as="targetPoint" />
          </mxGeometry>
        </mxCell>
        <mxCell id="cfgM2LiuhfPeAGd90OJj-20" value="" style="endArrow=classic;startArrow=classic;html=1;rounded=0;exitX=0.5;exitY=0;exitDx=0;exitDy=0;entryX=0.75;entryY=1;entryDx=0;entryDy=0;edgeStyle=orthogonalEdgeStyle;" edge="1" parent="cfgM2LiuhfPeAGd90OJj-8" source="cfgM2LiuhfPeAGd90OJj-5" target="cfgM2LiuhfPeAGd90OJj-2">
          <mxGeometry width="50" height="50" relative="1" as="geometry">
            <mxPoint x="45" y="110" as="sourcePoint" />
            <mxPoint x="190" y="75" as="targetPoint" />
          </mxGeometry>
        </mxCell>
        <mxCell id="cfgM2LiuhfPeAGd90OJj-21" value="&lt;i&gt;Conteur Docker&lt;/i&gt;" style="text;html=1;align=center;verticalAlign=middle;resizable=0;points=[];autosize=1;strokeColor=none;fillColor=none;" vertex="1" parent="cfgM2LiuhfPeAGd90OJj-8">
          <mxGeometry x="15" y="15" width="110" height="30" as="geometry" />
        </mxCell>
        <mxCell id="cfgM2LiuhfPeAGd90OJj-56" value="&lt;b&gt;Frontend&lt;/b&gt;&lt;div&gt;&lt;i&gt;React&lt;/i&gt;&lt;/div&gt;" style="rounded=1;whiteSpace=wrap;html=1;fillColor=#1ba1e2;fontColor=#ffffff;strokeColor=#006EAF;" vertex="1" parent="cfgM2LiuhfPeAGd90OJj-8">
          <mxGeometry x="280" y="20" width="70" height="45" as="geometry" />
        </mxCell>
        <mxCell id="cfgM2LiuhfPeAGd90OJj-24" value="&lt;b&gt;Nginx&lt;/b&gt;&lt;br&gt;&lt;i&gt;Reverse Proxy&lt;/i&gt;" style="rounded=1;whiteSpace=wrap;html=1;fillColor=#60a917;fontColor=#ffffff;strokeColor=#2D7600;" vertex="1" parent="cfgM2LiuhfPeAGd90OJj-26">
          <mxGeometry x="180" y="10" width="90" height="40" as="geometry" />
        </mxCell>
        <mxCell id="cfgM2LiuhfPeAGd90OJj-28" value="&lt;i&gt;Virtual Private Server&lt;/i&gt;" style="text;html=1;align=center;verticalAlign=middle;resizable=0;points=[];autosize=1;strokeColor=none;fillColor=none;" vertex="1" parent="cfgM2LiuhfPeAGd90OJj-26">
          <mxGeometry x="10" width="140" height="30" as="geometry" />
        </mxCell>
        <mxCell id="cfgM2LiuhfPeAGd90OJj-41" value="" style="endArrow=classic;startArrow=classic;html=1;rounded=0;entryX=0.5;entryY=1;entryDx=0;entryDy=0;exitX=0.5;exitY=0;exitDx=0;exitDy=0;" edge="1" parent="cfgM2LiuhfPeAGd90OJj-26" source="cfgM2LiuhfPeAGd90OJj-2" target="cfgM2LiuhfPeAGd90OJj-24">
          <mxGeometry width="50" height="50" relative="1" as="geometry">
            <mxPoint x="290" y="90" as="sourcePoint" />
            <mxPoint x="340" y="40" as="targetPoint" />
          </mxGeometry>
        </mxCell>
        <mxCell id="cfgM2LiuhfPeAGd90OJj-58" value="" style="endArrow=classic;startArrow=classic;html=1;rounded=0;entryX=0.75;entryY=1;entryDx=0;entryDy=0;exitX=0.5;exitY=0;exitDx=0;exitDy=0;" edge="1" parent="cfgM2LiuhfPeAGd90OJj-26" source="cfgM2LiuhfPeAGd90OJj-56" target="cfgM2LiuhfPeAGd90OJj-24">
          <mxGeometry width="50" height="50" relative="1" as="geometry">
            <mxPoint x="210" y="210" as="sourcePoint" />
            <mxPoint x="260" y="160" as="targetPoint" />
          </mxGeometry>
        </mxCell>
        <mxCell id="cfgM2LiuhfPeAGd90OJj-40" value="" style="endArrow=classic;startArrow=classic;html=1;rounded=0;exitX=0.5;exitY=0;exitDx=0;exitDy=0;" edge="1" parent="1" source="cfgM2LiuhfPeAGd90OJj-24" target="cfgM2LiuhfPeAGd90OJj-10">
          <mxGeometry width="50" height="50" relative="1" as="geometry">
            <mxPoint x="510" y="-380" as="sourcePoint" />
            <mxPoint x="440" y="-490" as="targetPoint" />
          </mxGeometry>
        </mxCell>
        <mxCell id="cfgM2LiuhfPeAGd90OJj-42" value="&lt;u&gt;&lt;i&gt;&lt;b&gt;Architecture de l&#39;application&lt;/b&gt;&lt;/i&gt;&lt;/u&gt;" style="text;html=1;align=center;verticalAlign=middle;resizable=0;points=[];autosize=1;strokeColor=none;fillColor=none;" vertex="1" parent="1">
          <mxGeometry x="350" y="-130" width="180" height="30" as="geometry" />
        </mxCell>
        <mxCell id="cfgM2LiuhfPeAGd90OJj-17" value="" style="endArrow=classic;startArrow=classic;html=1;rounded=0;exitX=0.145;exitY=0;exitDx=0;exitDy=1.7400000000000164;exitPerimeter=0;entryX=0.5;entryY=1;entryDx=0;entryDy=0;edgeStyle=orthogonalEdgeStyle;" edge="1" parent="1" source="cfgM2LiuhfPeAGd90OJj-9" target="cfgM2LiuhfPeAGd90OJj-3">
          <mxGeometry width="50" height="50" relative="1" as="geometry">
            <mxPoint x="530" y="-209" as="sourcePoint" />
            <mxPoint x="625" y="-245" as="targetPoint" />
            <Array as="points">
              <mxPoint x="392" y="-245" />
              <mxPoint x="305" y="-245" />
            </Array>
          </mxGeometry>
        </mxCell>
        <mxCell id="cfgM2LiuhfPeAGd90OJj-16" value="" style="endArrow=classic;startArrow=classic;html=1;rounded=0;exitX=0.855;exitY=0;exitDx=0;exitDy=1.7400000000000164;exitPerimeter=0;entryX=0.5;entryY=1;entryDx=0;entryDy=0;edgeStyle=orthogonalEdgeStyle;" edge="1" parent="1" source="cfgM2LiuhfPeAGd90OJj-9" target="cfgM2LiuhfPeAGd90OJj-5">
          <mxGeometry width="50" height="50" relative="1" as="geometry">
            <mxPoint x="455" y="-215" as="sourcePoint" />
            <mxPoint x="455" y="-250" as="targetPoint" />
            <Array as="points">
              <mxPoint x="498" y="-245" />
              <mxPoint x="575" y="-245" />
            </Array>
          </mxGeometry>
        </mxCell>
        <mxCell id="cfgM2LiuhfPeAGd90OJj-15" value="" style="endArrow=classic;startArrow=classic;html=1;rounded=0;exitX=0.5;exitY=0;exitDx=0;exitDy=0;exitPerimeter=0;" edge="1" parent="1" source="cfgM2LiuhfPeAGd90OJj-9" target="cfgM2LiuhfPeAGd90OJj-4">
          <mxGeometry width="50" height="50" relative="1" as="geometry">
            <mxPoint x="525" y="-285" as="sourcePoint" />
            <mxPoint x="575" y="-335" as="targetPoint" />
          </mxGeometry>
        </mxCell>
        <mxCell id="cfgM2LiuhfPeAGd90OJj-61" value="" style="swimlane;startSize=0;" vertex="1" parent="1">
          <mxGeometry x="220" y="-210" width="440" height="70" as="geometry" />
        </mxCell>
        <mxCell id="cfgM2LiuhfPeAGd90OJj-9" value="&lt;b&gt;Postgres SQL&lt;/b&gt;" style="shape=cylinder3;whiteSpace=wrap;html=1;boundedLbl=1;backgroundOutline=1;size=6.000000000000057;fillColor=#dae8fc;gradientColor=#7ea6e0;strokeColor=#6c8ebf;" vertex="1" parent="cfgM2LiuhfPeAGd90OJj-61">
          <mxGeometry x="150" y="20" width="150" height="40" as="geometry" />
        </mxCell>
        <mxCell id="cfgM2LiuhfPeAGd90OJj-62" value="superbase.com" style="text;html=1;align=center;verticalAlign=middle;resizable=0;points=[];autosize=1;strokeColor=none;fillColor=none;" vertex="1" parent="cfgM2LiuhfPeAGd90OJj-61">
          <mxGeometry y="40" width="110" height="30" as="geometry" />
        </mxCell>
      </root>
    </mxGraphModel>
  </diagram>
</mxfile>
